<svg xmlns="http://www.w3.org/2000/svg" width="24" height="24" fill="#0077B5" viewBox="0 0 24 24">
  <path d="M20.447 20.452h-3.554v-5.569c0-1.327-.024-3.037-1.852-3.037-1.853 0-2.137 1.445-2.137 2.939v5.667h-3.553v-11.49h3.413v1.571h.049c.476-.899 1.637-1.852 3.372-1.852 3.605 0 4.268 2.372 4.268 5.455v6.316zm-14.693-13.33c-1.144 0-2.07-.927-2.07-2.071s.926-2.071 2.07-2.071 2.071.927 2.071 2.071-.927 2.071-2.071 2.071zm1.777 13.33h-3.554v-11.49h3.554v11.49zm16.469-20.452h-20.452c-.983 0-1.777.794-1.777 1.777v20.452c0 .983.794 1.777 1.777 1.777h20.452c.983 0 1.777-.794 1.777-1.777v-20.452c0-.983-.794-1.777-1.777-1.777z"/>
</svg>
